<svg width="24" height="25" viewBox="0 0 24 25" fill="none" xmlns="http://www.w3.org/2000/svg">
<path d="M16.3799 23.2502H3.23993C2.28993 23.2502 1.40993 22.8103 0.839932 22.0403C0.259932 21.2603 0.0899403 20.2802 0.37994 19.3502L4.58993 5.82019C4.96993 4.56019 6.12995 3.7002 7.44995 3.7002H19.7499C20.9599 3.7002 22.0499 4.42028 22.5099 5.54028C22.7599 6.12028 22.8099 6.7803 22.6599 7.4303L19.2899 20.9602C18.9699 22.3102 17.7699 23.2502 16.3799 23.2502ZM7.45993 5.21021C6.80993 5.21021 6.21993 5.64026 6.02993 6.27026L1.81994 19.8003C1.67994 20.2703 1.75993 20.7603 2.05993 21.1603C2.33993 21.5403 2.77994 21.7603 3.24994 21.7603H16.3899C17.08 21.7603 17.6799 21.2902 17.8399 20.6202L21.2099 7.0802C21.2899 6.7502 21.2699 6.42025 21.1399 6.13025C20.9 5.56025 20.3699 5.2002 19.7599 5.2002H7.45993V5.21021Z" fill="white"/>
<path d="M20.78 23.25H16C15.59 23.25 15.25 22.91 15.25 22.5C15.25 22.09 15.59 21.75 16 21.75H20.78C21.19 21.75 21.57 21.58 21.85 21.28C22.13 20.98 22.27 20.58 22.24 20.17L21.25 6.55002C21.22 6.14002 21.53 5.77997 21.94 5.74997C22.35 5.72997 22.71 6.02991 22.74 6.43991L23.73 20.06C23.79 20.88 23.5 21.7 22.94 22.3C22.39 22.91 21.6 23.25 20.78 23.25Z" fill="white"/>
<path d="M9.67977 7.62971C9.61977 7.62971 9.55977 7.61969 9.49977 7.60969C9.09977 7.50969 8.84979 7.10966 8.94979 6.69966L9.98976 2.37971C10.0898 1.97971 10.4898 1.72966 10.8998 1.82966C11.2998 1.92966 11.5498 2.3297 11.4498 2.7397L10.4098 7.05977C10.3298 7.39977 10.0198 7.62971 9.67977 7.62971Z" fill="white"/>
<path d="M16.3799 7.63974C16.3299 7.63974 16.2699 7.63972 16.2199 7.61972C15.8199 7.52972 15.56 7.12971 15.64 6.72971L16.5799 2.38974C16.6699 1.97974 17.0699 1.72979 17.4699 1.80979C17.8699 1.88979 18.1299 2.29968 18.0499 2.69968L17.1099 7.03977C17.0399 7.39977 16.7299 7.63974 16.3799 7.63974Z" fill="white"/>
<path d="M15.7002 13.25H7.7002C7.2902 13.25 6.9502 12.91 6.9502 12.5C6.9502 12.09 7.2902 11.75 7.7002 11.75H15.7002C16.1102 11.75 16.4502 12.09 16.4502 12.5C16.4502 12.91 16.1102 13.25 15.7002 13.25Z" fill="white"/>
<path d="M14.7002 17.25H6.7002C6.2902 17.25 5.9502 16.91 5.9502 16.5C5.9502 16.09 6.2902 15.75 6.7002 15.75H14.7002C15.1102 15.75 15.4502 16.09 15.4502 16.5C15.4502 16.91 15.1102 17.25 14.7002 17.25Z" fill="white"/>
</svg>
