<svg width="24" height="31" viewBox="0 0 24 31" fill="none" xmlns="http://www.w3.org/2000/svg">
<path d="M12 0.5C10.758 0.5 9.75 1.508 9.75 2.75V3.79297C5.86978 4.79314 3 8.3072 3 12.5V20H21V12.5C21 8.3072 18.1302 4.79314 14.25 3.79297V2.75C14.25 1.508 13.242 0.5 12 0.5ZM0 23V26H9.4043C9.14016 26.4558 9.00072 26.9732 9 27.5C9 28.2956 9.31607 29.0587 9.87868 29.6213C10.4413 30.1839 11.2044 30.5 12 30.5C12.7956 30.5 13.5587 30.1839 14.1213 29.6213C14.6839 29.0587 15 28.2956 15 27.5C14.9984 26.9729 14.8579 26.4555 14.5928 26H24V23H0Z" fill="white"/>
</svg>
