<svg width="18" height="19" viewBox="0 0 18 19" fill="none" xmlns="http://www.w3.org/2000/svg">
<path d="M14.5 0.333328C13.7707 0.333328 13.0712 0.62306 12.5555 1.13878C12.0397 1.65451 11.75 2.35398 11.75 3.08333C11.7506 3.2558 11.7673 3.42784 11.8001 3.59716L5.27783 7.40169C4.78105 6.98085 4.15107 6.74992 3.5 6.74999C2.77065 6.74999 2.07118 7.03973 1.55546 7.55545C1.03973 8.07118 0.75 8.77065 0.75 9.49999C0.75 10.2293 1.03973 10.9288 1.55546 11.4445C2.07118 11.9603 2.77065 12.25 3.5 12.25C4.15007 12.2487 4.77866 12.0172 5.27425 11.5965L11.8001 15.4028C11.7673 15.5722 11.7506 15.7442 11.75 15.9167C11.75 16.646 12.0397 17.3455 12.5555 17.8612C13.0712 18.3769 13.7707 18.6667 14.5 18.6667C15.2293 18.6667 15.9288 18.3769 16.4445 17.8612C16.9603 17.3455 17.25 16.646 17.25 15.9167C17.25 15.1873 16.9603 14.4878 16.4445 13.9721C15.9288 13.4564 15.2293 13.1667 14.5 13.1667C13.8493 13.1675 13.22 13.3991 12.724 13.8201L6.19987 10.0138C6.23266 9.8445 6.24944 9.67247 6.25 9.49999C6.24944 9.32752 6.23266 9.15549 6.19987 8.98616L12.7222 5.18164C13.2189 5.60247 13.8489 5.8334 14.5 5.83333C15.2293 5.83333 15.9288 5.5436 16.4445 5.02787C16.9603 4.51215 17.25 3.81267 17.25 3.08333C17.25 2.35398 16.9603 1.65451 16.4445 1.13878C15.9288 0.62306 15.2293 0.333328 14.5 0.333328Z" fill="white"/>
</svg>
