<svg width="25" height="24" viewBox="0 0 25 24" fill="none" xmlns="http://www.w3.org/2000/svg">
<path opacity="0.4" d="M12.5 22C18.0228 22 22.5 17.5228 22.5 12C22.5 6.47715 18.0228 2 12.5 2C6.97715 2 2.5 6.47715 2.5 12C2.5 17.5228 6.97715 22 12.5 22Z" fill="#419000"/>
<path d="M11.0799 15.5801C10.8799 15.5801 10.6899 15.5001 10.5499 15.3601L7.71994 12.5301C7.42994 12.2401 7.42994 11.7601 7.71994 11.4701C8.00994 11.1801 8.48994 11.1801 8.77994 11.4701L11.0799 13.7701L16.2199 8.6301C16.5099 8.3401 16.9899 8.3401 17.2799 8.6301C17.5699 8.9201 17.5699 9.4001 17.2799 9.6901L11.6099 15.3601C11.4699 15.5001 11.2799 15.5801 11.0799 15.5801Z" fill="#419000"/>
</svg>
